<svg width="22" height="21" viewBox="0 0 22 21" fill="none" xmlns="http://www.w3.org/2000/svg">
<path fill-rule="evenodd" clip-rule="evenodd" d="M5.69817 7L10.0968 2.78467C11.1605 1.7653 12.8385 1.7653 13.9022 2.78467L18.3008 7H20.8465C21.4551 7 21.9225 7.53899 21.8365 8.14142L20.3675 18.4243C20.1563 19.9022 18.8906 21 17.3976 21H6.60141C5.10846 21 3.8427 19.9022 3.63156 18.4243L2.16258 8.14142C2.07652 7.53899 2.54398 7 3.15253 7H5.69817ZM11.1346 3.86766C11.6181 3.4043 12.3809 3.4043 12.8644 3.86766L16.1329 7H7.86609L11.1346 3.86766ZM3.72904 8.5L5.11648 18.2121C5.22205 18.9511 5.85493 19.5 6.60141 19.5H17.3976C18.1441 19.5 18.777 18.9511 18.8826 18.2121L20.27 8.5H3.72904Z" fill="black"/>
<path fill-rule="evenodd" clip-rule="evenodd" d="M8 11.25C8.41421 11.25 8.75 11.5858 8.75 12V16C8.75 16.4142 8.41421 16.75 8 16.75C7.58579 16.75 7.25 16.4142 7.25 16V12C7.25 11.5858 7.58579 11.25 8 11.25Z" fill="black"/>
<path fill-rule="evenodd" clip-rule="evenodd" d="M12 11.25C12.4142 11.25 12.75 11.5858 12.75 12V16C12.75 16.4142 12.4142 16.75 12 16.75C11.5858 16.75 11.25 16.4142 11.25 16V12C11.25 11.5858 11.5858 11.25 12 11.25Z" fill="black"/>
<path fill-rule="evenodd" clip-rule="evenodd" d="M16 11.25C16.4142 11.25 16.75 11.5858 16.75 12V16C16.75 16.4142 16.4142 16.75 16 16.75C15.5858 16.75 15.25 16.4142 15.25 16V12C15.25 11.5858 15.5858 11.25 16 11.25Z" fill="black"/>
</svg>
