<svg width="38" height="38" viewBox="0 0 38 38" fill="none" xmlns="http://www.w3.org/2000/svg">
<g clip-path="url(#clip0_173_823)">
<path d="M19 38C29.4934 38 38 29.4934 38 19C38 8.50659 29.4934 0 19 0C8.50659 0 0 8.50659 0 19C0 29.4934 8.50659 38 19 38Z" fill="url(#paint0_linear_173_823)"/>
<path fill-rule="evenodd" clip-rule="evenodd" d="M8.6005 18.7994C14.1394 16.3862 17.8328 14.7953 19.6809 14.0266C24.9574 11.832 26.0538 11.4507 26.7684 11.4381C26.9256 11.4354 27.277 11.4743 27.5047 11.659C27.6969 11.815 27.7498 12.0257 27.7751 12.1736C27.8004 12.3215 27.8319 12.6583 27.8068 12.9215C27.5209 15.9259 26.2837 23.2166 25.6542 26.5816C25.3879 28.0054 24.8635 28.4828 24.3558 28.5295C23.2524 28.631 22.4146 27.8003 21.3459 27.0998C19.6736 26.0036 18.7289 25.3212 17.1057 24.2516C15.2298 23.0154 16.4459 22.336 17.515 21.2256C17.7947 20.935 22.6562 16.5131 22.7503 16.112C22.7621 16.0618 22.773 15.8748 22.6619 15.7761C22.5508 15.6773 22.3868 15.7111 22.2685 15.738C22.1008 15.776 19.4293 17.5418 14.2542 21.0351C13.4959 21.5558 12.8091 21.8095 12.1937 21.7962C11.5153 21.7816 10.2103 21.4126 9.24023 21.0973C8.05036 20.7105 7.10467 20.506 7.18702 19.8491C7.22991 19.507 7.70107 19.1571 8.6005 18.7994Z" fill="white"/>
</g>
<defs>
<linearGradient id="paint0_linear_173_823" x1="19" y1="0" x2="19" y2="37.7182" gradientUnits="userSpaceOnUse">
<stop/>
<stop offset="1"/>
</linearGradient>
<clipPath id="clip0_173_823">
<rect width="38" height="38" fill="white"/>
</clipPath>
</defs>
</svg>
