<svg width="38" height="38" viewBox="0 0 38 38" fill="none" xmlns="http://www.w3.org/2000/svg">
<g clip-path="url(#clip0_173_822)">
<path d="M0 18.24C0 9.64155 0 5.34237 2.67119 2.67119C5.34237 0 9.64155 0 18.24 0H19.76C28.3585 0 32.6576 0 35.3288 2.67119C38 5.34237 38 9.64155 38 18.24V19.76C38 28.3585 38 32.6576 35.3288 35.3288C32.6576 38 28.3585 38 19.76 38H18.24C9.64155 38 5.34237 38 2.67119 35.3288C0 32.6576 0 28.3585 0 19.76V18.24Z" fill="black"/>
<path d="M20.154 27.3599C11.3255 27.3599 6.2899 21.3689 6.08008 11.3999H10.5024C10.6477 18.7169 13.9079 21.8162 16.4902 22.4553V11.3999H20.6545V17.7104C23.2046 17.4388 25.8835 14.5631 26.7873 11.3999H30.9515C30.2575 15.298 27.3523 18.1737 25.2864 19.3559C27.3523 20.3145 30.6612 22.8227 31.9201 27.3599H27.3362C26.3516 24.3245 23.8986 21.976 20.6545 21.6565V27.3599H20.154Z" fill="white"/>
</g>
<defs>
<clipPath id="clip0_173_822">
<rect width="38" height="38" fill="white"/>
</clipPath>
</defs>
</svg>
